<?xml version="1.0" standalone="no"?>
<!DOCTYPE svg PUBLIC "-//W3C//DTD SVG 20010904//EN"
 "http://www.w3.org/TR/2001/REC-SVG-20010904/DTD/svg10.dtd">
<svg version="1.0" xmlns="http://www.w3.org/2000/svg"
 width="224.000000pt" height="225.000000pt" viewBox="0 0 224.000000 225.000000"
 preserveAspectRatio="xMidYMid meet">

<g transform="translate(0.000000,225.000000) scale(0.100000,-0.100000)"
fill="#000000" stroke="none">
<path d="M1020 2239 c-372 -25 -724 -266 -898 -614 -80 -161 -113 -304 -114
-490 -1 -145 18 -264 59 -378 101 -281 294 -501 555 -632 164 -82 306 -115
498 -115 259 0 482 77 686 236 217 169 357 403 410 684 23 120 15 365 -16 470
-77 273 -208 468 -415 623 -222 165 -470 235 -765 216z m253 -40 c649 -96
1063 -743 881 -1377 -181 -630 -890 -956 -1482 -681 -234 108 -413 284 -524
516 -311 647 84 1414 792 1538 94 16 239 18 333 4z"/>
<path d="M920 2146 c-319 -67 -582 -271 -725 -561 -76 -153 -96 -237 -102
-416 -6 -167 3 -240 48 -374 77 -236 232 -426 455 -562 153 -93 289 -133 479
-140 297 -12 540 79 752 281 147 140 236 287 291 486 25 87 27 110 26 270 0
146 -4 188 -22 252 -101 368 -380 651 -737 748 -102 28 -364 37 -465 16z m371
-11 c395 -69 711 -360 816 -750 23 -87 26 -120 27 -255 0 -127 -3 -170 -21
-240 -95 -376 -373 -659 -743 -758 -82 -22 -116 -25 -250 -25 -136 0 -167 3
-251 25 -459 124 -769 524 -769 993 0 395 221 749 575 920 110 53 196 81 290
95 86 13 239 11 326 -5z"/>
<path d="M1008 2052 c-39 -3 -52 -24 -23 -36 9 -3 15 -18 15 -34 0 -52 12 -92
28 -92 12 0 13 11 8 69 -5 50 -4 70 5 73 26 9 2 23 -33 20z"/>
<path d="M1080 1980 c0 -73 2 -80 20 -80 18 0 20 7 20 80 0 73 -2 80 -20 80
-18 0 -20 -7 -20 -80z"/>
<path d="M1150 2003 c0 -32 -3 -68 -6 -80 -5 -19 -2 -23 15 -23 18 0 21 6 22
48 0 39 2 43 9 22 4 -14 11 -37 14 -52 4 -19 13 -28 26 -28 16 0 20 7 20 34 0
18 3 54 6 80 6 37 4 46 -9 46 -18 0 -27 -20 -28 -63 -1 -27 -3 -25 -13 18 -9
39 -17 51 -34 53 -21 3 -22 -1 -22 -55z"/>
<path d="M905 2030 c-3 -5 -1 -26 4 -47 6 -20 9 -38 8 -40 -2 -1 -14 16 -27
37 -24 39 -43 50 -55 30 -9 -14 28 -142 43 -147 21 -9 25 4 12 42 -16 49 -7
54 20 11 12 -21 30 -36 41 -36 23 0 24 -4 -3 86 -20 71 -30 85 -43 64z"/>
<path d="M1312 2018 c-16 -20 -34 -91 -30 -118 2 -19 9 -25 26 -24 12 0 22 -3
22 -8 0 -22 29 -4 39 23 17 48 14 61 -11 57 -16 -2 -23 -10 -23 -25 0 -13 -4
-22 -10 -20 -11 2 -9 36 5 73 10 26 30 33 30 10 0 -8 7 -16 15 -20 11 -4 15 2
15 23 0 39 -54 58 -78 29z"/>
<path d="M616 1992 c-28 -32 -27 -110 2 -165 32 -61 55 -74 88 -52 13 8 24 23
24 32 0 27 -61 113 -80 113 -36 0 -35 54 1 63 24 6 49 -24 79 -97 13 -33 30
-58 42 -61 21 -7 68 18 68 36 0 23 -53 129 -65 129 -24 0 -24 -13 0 -61 14
-27 25 -55 25 -64 0 -32 -18 -12 -44 49 -38 90 -98 123 -140 78z m58 -142 c27
-41 32 -60 17 -60 -10 0 -61 75 -61 90 0 21 18 9 44 -30z"/>
<path d="M1467 1898 c-43 -55 -46 -63 -30 -71 12 -7 18 -7 21 1 7 21 35 14 29
-7 -4 -16 9 -31 27 -31 2 0 13 34 26 76 18 63 20 78 9 85 -24 15 -33 9 -82
-53z m52 -6 c-6 -18 -15 -32 -20 -32 -13 0 -11 8 8 41 21 36 26 32 12 -9z"/>
<path d="M1600 1885 c-8 -10 -10 -31 -5 -65 6 -43 4 -50 -10 -50 -11 0 -15 7
-13 23 2 14 -2 22 -12 22 -22 0 -24 -34 -4 -56 22 -24 46 -24 68 0 15 17 16
25 6 55 -12 36 -6 61 11 50 5 -3 8 -13 7 -22 -2 -10 4 -17 12 -17 25 0 24 41
-2 59 -28 20 -42 20 -58 1z"/>
<path d="M508 1829 c-28 -16 -21 -50 21 -99 36 -41 41 -44 68 -35 23 9 28 16
28 45 0 24 -5 35 -15 35 -10 0 -14 -8 -12 -27 4 -39 -9 -35 -47 13 -32 39 -36
64 -8 40 20 -16 42 10 25 27 -15 15 -37 15 -60 1z"/>
<path d="M1702 1798 c-7 -7 -12 -34 -12 -60 0 -26 -4 -48 -9 -48 -15 0 -22 18
-11 25 8 5 7 11 -1 21 -9 11 -15 11 -25 3 -19 -16 -17 -36 6 -59 41 -41 83
-12 78 53 -2 25 2 42 10 44 8 3 11 -4 10 -19 -4 -31 26 -31 30 0 6 43 -45 71
-76 40z"/>
<path d="M801 1755 c0 -17 6 -40 14 -52 16 -22 38 -112 37 -148 -2 -51 -62
-97 -83 -64 -21 34 -40 125 -34 164 6 43 -1 75 -16 75 -5 0 -4 -11 1 -25 13
-35 4 -52 -61 -116 -66 -66 -129 -167 -159 -259 -27 -81 -37 -232 -21 -322 55
-319 361 -558 681 -534 169 13 299 73 421 195 340 339 201 918 -258 1078 -69
24 -93 27 -203 27 -111 0 -134 -3 -205 -28 -104 -36 -98 -36 -106 4 -6 35 -6
35 -8 5z m556 -150 c90 -44 124 -89 131 -170 3 -42 0 -61 -18 -94 -31 -53 -68
-69 -189 -81 -118 -11 -144 -17 -193 -41 -68 -34 -97 -99 -65 -143 16 -22 60
-18 65 6 3 13 -3 16 -25 15 -38 -3 -42 30 -9 70 41 49 116 67 241 58 175 -12
224 7 277 104 33 60 54 1 22 -61 -15 -28 -15 -32 0 -40 35 -20 12 -84 -61
-167 l-47 -54 -117 7 c-94 6 -131 4 -189 -10 -67 -17 -75 -17 -123 -1 -29 9
-65 18 -82 19 -42 4 -52 32 -58 161 -5 102 -4 109 17 122 12 8 84 20 173 29
170 17 227 35 248 77 17 32 19 82 5 109 -26 49 -160 64 -216 24 -54 -39 -90
-54 -134 -54 -25 0 -54 -7 -64 -15 -11 -8 -33 -15 -49 -15 -25 0 -28 2 -17 15
10 13 9 15 -9 15 -32 0 -16 19 34 40 23 10 52 32 64 48 19 28 56 45 136 66 11
3 55 3 99 1 66 -3 90 -9 153 -40z m-520 -162 c3 -10 14 -27 24 -39 26 -28 39
-108 38 -228 l-1 -101 -33 70 c-19 39 -34 67 -34 64 -1 -3 13 -43 29 -89 35
-94 33 -100 -36 -100 -61 0 -75 -17 -98 -122 -13 -57 -72 -21 -101 61 -40 114
-1 227 99 285 56 33 72 33 90 -1 21 -38 20 -24 -1 23 -11 25 -17 67 -17 117
-1 67 1 77 17 77 10 0 20 -8 24 -17z m763 -378 c0 -29 -31 -94 -56 -119 -12
-13 -19 -14 -30 -5 -26 22 -16 61 28 106 49 50 58 53 58 18z m-692 -82 c4 -24
-18 -31 -101 -32 -41 -1 -48 2 -45 16 5 26 47 44 98 41 37 -3 46 -7 48 -25z
m173 -1 c34 -17 39 -17 66 -3 21 12 58 16 153 16 69 0 137 -3 151 -7 30 -9 41
-28 29 -48 -7 -11 -18 -11 -67 1 -32 7 -80 14 -108 13 -71 -1 -183 -12 -194
-18 -5 -4 -15 -4 -23 -1 -7 3 -34 9 -60 14 -42 7 -45 7 -36 -9 7 -11 6 -55 -3
-146 -14 -127 -15 -129 -39 -129 -24 0 -25 2 -23 60 2 73 11 278 12 284 2 10
108 -10 142 -27z m-160 -114 c-1 -42 -8 -103 -15 -135 -9 -49 -15 -58 -35 -61
-13 -2 -27 0 -32 5 -10 10 18 194 38 240 9 23 19 33 31 31 15 -3 17 -14 13
-80z m477 62 c24 -6 45 -16 47 -23 9 -24 43 -241 40 -247 -2 -3 -20 -4 -40 -2
-25 3 -39 11 -44 25 -7 18 -8 18 -14 4 -7 -18 -42 -23 -52 -8 -11 18 -28 216
-21 244 5 20 11 27 24 23 9 -3 36 -10 60 -16z m-551 -22 c-2 -18 -10 -71 -17
-118 -7 -47 -17 -91 -23 -97 -5 -8 -32 -13 -63 -13 -62 0 -61 -2 -39 95 32
135 52 163 119 164 26 1 28 -1 23 -31z m448 -55 c13 -190 13 -190 -35 -195
-22 -2 -45 1 -50 6 -11 11 -14 259 -3 269 3 4 23 7 44 7 l37 0 7 -87z m-256
25 c-1 -90 -23 -231 -36 -236 -9 -2 -13 9 -13 35 0 41 17 192 25 231 10 41 25
22 24 -30z m62 10 c2 -18 2 -85 -1 -148 -5 -107 -6 -115 -26 -118 -43 -6 -49
20 -31 136 10 59 17 119 17 135 0 20 5 27 19 27 14 0 20 -9 22 -32z m73 10 c3
-13 7 -73 9 -135 4 -99 2 -114 -13 -128 -10 -9 -27 -15 -37 -13 -17 3 -18 14
-14 138 2 74 8 141 13 148 16 19 37 14 42 -10z m330 -7 c15 -17 56 -178 56
-224 0 -25 -30 -34 -45 -14 -7 9 -20 58 -29 109 -9 51 -19 102 -21 114 -8 37
12 45 39 15z m-627 -235 c83 -18 103 -25 103 -38 0 -6 -7 -7 -17 -2 -10 4 -70
8 -133 8 -99 1 -115 3 -118 18 -6 29 65 35 165 14z"/>
<path d="M1025 1590 c-8 -13 20 -24 41 -16 20 8 9 26 -16 26 -10 0 -22 -5 -25
-10z"/>
<path d="M920 1510 l-25 -19 29 7 c16 5 31 13 34 20 5 17 -9 14 -38 -8z"/>
<path d="M1456 1194 c-16 -9 -65 -19 -110 -23 -84 -8 -139 -29 -150 -56 -12
-33 -5 -35 22 -5 25 28 36 32 127 44 99 13 145 27 145 46 0 12 1 12 -34 -6z"/>
<path d="M1490 1139 c-14 -11 -50 -22 -80 -25 -68 -7 -120 -22 -120 -35 0 -6
5 -7 10 -4 6 4 50 13 97 21 60 9 93 20 107 34 27 26 17 32 -14 9z"/>
<path d="M1364 845 c3 -44 10 -93 15 -110 7 -21 8 -1 4 65 -3 52 -10 102 -15
110 -6 10 -7 -14 -4 -65z"/>
<path d="M416 1734 c-29 -28 -19 -59 31 -98 25 -20 50 -36 54 -36 4 0 17 8 29
18 18 14 21 25 17 44 -8 32 -35 44 -44 21 -4 -9 -1 -19 5 -21 15 -5 16 -22 1
-22 -17 0 -79 51 -79 66 0 17 12 18 28 2 9 -9 13 -7 18 6 12 32 -33 47 -60 20z"/>
<path d="M1759 1677 c-20 -18 -39 -40 -42 -50 -7 -19 24 -57 46 -57 20 0 107
71 107 87 0 59 -56 69 -111 20z m81 -5 c0 -14 -82 -72 -93 -65 -5 3 8 21 29
39 37 32 64 43 64 26z"/>
<path d="M332 1619 c-7 -11 -12 -22 -10 -23 2 -1 29 -26 61 -56 46 -43 60 -51
67 -40 5 9 5 19 -1 27 -13 15 -3 34 15 27 7 -3 18 2 25 9 11 15 8 17 -134 73
-6 2 -16 -5 -23 -17z m69 -34 c16 -9 27 -20 23 -26 -4 -6 -16 -1 -33 13 -14
13 -28 24 -30 26 -17 10 16 -1 40 -13z"/>
<path d="M1828 1571 c-51 -32 -60 -57 -32 -85 26 -26 82 -15 65 13 -6 8 -16
11 -31 6 -38 -12 -18 17 29 44 44 24 63 23 41 -4 -21 -25 4 -45 27 -22 13 13
15 23 7 44 -13 39 -48 40 -106 4z"/>
<path d="M1890 1463 c-78 -32 -74 -28 -63 -46 7 -12 19 -10 78 12 44 17 71 33
73 44 5 23 -11 21 -88 -10z"/>
<path d="M254 1468 c-8 -13 23 -38 47 -38 10 0 21 -5 25 -11 4 -8 -8 -10 -40
-8 -38 4 -47 1 -52 -14 -3 -10 -4 -20 -2 -21 11 -10 142 -45 149 -40 19 11 7
24 -33 36 l-43 13 50 5 c36 4 51 10 53 21 2 13 -15 23 -72 42 -51 17 -78 22
-82 15z"/>
<path d="M1873 1392 c-37 -4 -44 -21 -13 -29 23 -6 26 -23 8 -41 -8 -8 -9 -15
-1 -23 7 -7 30 -1 77 23 53 26 66 37 66 56 0 22 -3 23 -52 20 -29 -2 -68 -4
-85 -6z m97 -26 c0 -2 -13 -9 -30 -15 -24 -8 -30 -7 -30 5 0 9 10 14 30 14 17
0 30 -2 30 -4z"/>
<path d="M210 1286 c0 -20 10 -27 71 -50 76 -28 91 -27 71 4 -16 26 -15 40 3
40 8 0 15 7 15 15 0 12 -16 15 -80 15 -78 0 -80 -1 -80 -24z m81 -6 c10 0 19
-5 19 -10 0 -12 -50 -2 -65 13 -7 7 -4 8 8 3 10 -3 27 -6 38 -6z"/>
<path d="M1997 1286 c-3 -8 -27 -15 -61 -18 -61 -5 -72 -10 -61 -28 5 -9 27
-10 71 -5 43 4 64 3 64 -4 0 -6 7 -11 15 -11 16 0 19 20 9 58 -7 24 -29 30
-37 8z"/>
<path d="M195 1189 c-11 -16 -5 -18 83 -25 70 -6 82 -5 82 8 0 9 -10 18 -22
22 -38 10 -136 7 -143 -5z"/>
<path d="M1948 1193 c-61 -4 -68 -6 -68 -25 0 -18 4 -20 31 -14 17 3 53 6 80
6 42 0 49 3 49 20 0 11 -6 19 -12 18 -7 -1 -43 -3 -80 -5z"/>
<path d="M205 1114 c-11 -12 -14 -25 -9 -48 3 -17 8 -33 9 -34 2 -2 38 -1 79
3 72 7 76 9 76 32 0 50 -16 63 -80 63 -41 0 -63 -5 -75 -16z m125 -29 c0 -12
-13 -15 -55 -15 -59 0 -75 16 -22 23 67 8 77 7 77 -8z"/>
<path d="M1896 1115 c-22 -22 -20 -62 3 -75 11 -5 45 -10 75 -10 46 0 57 4 67
21 19 37 -3 69 -48 69 -21 0 -47 3 -59 6 -13 3 -28 -1 -38 -11z m122 -42 c2
-8 -6 -13 -21 -13 -40 0 -87 12 -87 22 0 14 103 5 108 -9z"/>
<path d="M272 1001 c-35 -9 -63 -19 -63 -24 1 -4 1 -12 1 -18 0 -6 8 -8 18 -5
9 3 31 8 47 11 27 6 26 4 -13 -20 -27 -16 -42 -33 -40 -43 4 -19 1 -19 88 -2
57 11 70 17 70 32 0 21 -3 21 -49 8 -49 -14 -50 -5 -1 20 29 15 40 26 36 36
-3 9 -6 18 -6 20 0 7 -21 3 -88 -15z"/>
<path d="M1870 995 c0 -10 14 -17 40 -21 58 -10 59 -24 2 -24 -41 0 -51 -4
-55 -19 -4 -17 5 -22 69 -36 41 -9 78 -14 84 -10 21 13 9 25 -30 31 -54 9 -51
24 5 24 38 0 45 3 45 20 0 13 -9 22 -27 26 -16 3 -44 10 -63 15 -50 13 -70 11
-70 -6z"/>
<path d="M315 871 c-83 -29 -79 -26 -72 -45 5 -13 17 -11 79 10 85 30 82 28
71 46 -6 11 -21 9 -78 -11z"/>
<path d="M320 742 c-28 -22 -22 -67 10 -77 54 -17 93 42 50 77 -12 10 -26 18
-30 18 -4 0 -18 -8 -30 -18z"/>
<path d="M1836 741 c-25 -28 -17 -64 18 -76 24 -8 31 -6 47 14 24 29 24 36 -1
61 -25 25 -42 25 -64 1z"/>
<path d="M1630 519 c-66 -62 -90 -78 -105 -73 -46 14 -74 15 -95 4 -17 -9 -21
-18 -16 -40 5 -27 2 -30 -42 -46 -26 -10 -48 -18 -50 -19 -4 -3 32 -70 42 -78
6 -4 21 -5 34 -2 12 3 22 1 22 -5 0 -5 7 -10 15 -10 18 0 18 -4 0 45 -17 48
-18 65 -5 65 5 0 18 -21 30 -47 13 -30 24 -43 30 -37 7 7 3 25 -11 53 -11 24
-19 44 -17 46 10 8 48 25 57 25 6 0 11 -7 11 -15 0 -8 -7 -15 -15 -15 -8 0
-15 -4 -15 -10 0 -11 53 -40 75 -40 22 0 18 17 -6 23 -15 4 -20 11 -15 22 3 9
1 25 -4 36 -16 30 19 40 38 11 15 -23 56 -30 67 -11 4 6 13 8 20 5 26 -10 24
8 -7 46 l-31 39 28 29 c31 32 44 33 24 2 -25 -41 13 -74 59 -52 15 8 33 12 40
11 16 -3 15 5 -5 29 -24 27 -45 26 -41 -2 2 -17 -2 -23 -16 -23 -25 0 -31 19
-12 38 13 13 17 60 5 71 -2 2 -42 -32 -89 -75z m5 -60 c10 -14 1 -21 -19 -13
-9 3 -13 10 -10 15 7 12 21 11 29 -2z m-131 -28 c9 -14 -53 -36 -66 -23 -5 5
-7 15 -4 21 9 13 63 15 70 2z m137 -1 c6 0 7 -4 4 -10 -10 -15 -32 -12 -39 6
-5 12 -2 15 10 10 8 -3 20 -6 25 -6z m-238 -109 c3 -11 -1 -25 -9 -32 -11 -9
-16 -5 -26 16 -10 22 -9 28 2 35 18 11 26 6 33 -19z"/>
<path d="M447 583 c-15 -14 -6 -24 16 -17 22 7 22 6 4 -14 -11 -11 -25 -18
-33 -15 -10 4 -14 -3 -14 -22 0 -20 4 -26 15 -22 8 4 17 2 20 -4 4 -5 11 -6
17 -3 6 4 5 9 -3 15 -11 6 -8 13 10 33 14 14 21 32 18 40 -6 16 -38 22 -50 9z"/>
<path d="M503 526 c3 -7 -10 -28 -29 -47 -19 -18 -34 -37 -34 -41 0 -19 28 -5
57 29 22 27 35 35 42 28 8 -8 2 -21 -19 -45 -30 -36 -38 -60 -20 -60 6 0 10 3
10 8 0 4 14 22 30 40 26 28 32 31 50 20 11 -7 20 -18 20 -25 0 -17 -23 -29
-28 -15 -9 28 -22 8 -22 -33 0 -31 4 -45 14 -45 9 0 12 8 8 25 -3 18 0 25 11
25 9 0 22 8 29 18 12 17 15 17 52 -4 21 -12 34 -24 29 -27 -5 -3 -15 -2 -23 4
-38 23 -74 -8 -62 -53 6 -26 22 -22 22 5 0 31 9 38 32 26 18 -10 18 -12 3 -36
-12 -17 -14 -28 -6 -36 7 -7 17 5 32 37 13 25 29 46 36 46 17 0 17 0 -7 -54
-11 -27 -15 -48 -9 -51 5 -4 19 16 30 44 14 34 26 48 35 44 16 -6 19 -33 3
-33 -19 0 -4 -45 18 -55 13 -5 22 -16 20 -24 -1 -8 3 -16 9 -18 6 -2 17 17 24
43 7 25 19 48 27 51 26 10 12 22 -42 38 -31 9 -58 21 -60 28 -2 7 -6 24 -9 40
-5 22 -12 27 -36 27 -20 0 -30 -5 -30 -15 0 -8 -6 -15 -13 -15 -13 0 -104 58
-150 97 -32 26 -52 30 -44 9z m257 -116 c0 -22 -7 -25 -29 -11 -16 10 -6 31
15 31 8 0 14 -9 14 -20z m86 -78 c16 -10 -1 -52 -20 -52 -19 0 -33 23 -18 28
7 2 12 10 12 18 0 15 9 18 26 6z"/>
<path d="M1809 480 c-31 -25 -23 -25 27 0 29 14 34 19 18 20 -12 0 -32 -9 -45
-20z"/>
<path d="M980 370 c0 -5 4 -10 10 -10 5 0 14 -9 20 -20 10 -19 9 -20 -30 -14
-25 4 -40 3 -40 -4 0 -6 18 -13 40 -17 22 -4 37 -11 34 -16 -3 -6 -15 -7 -25
-4 -22 7 -49 -10 -49 -30 0 -19 40 -66 52 -59 5 4 0 16 -13 30 -18 19 -20 27
-10 37 9 9 13 9 20 -1 4 -7 15 -10 26 -6 15 6 17 4 11 -19 -7 -31 8 -36 24 -8
9 19 11 18 39 -10 30 -29 60 -36 109 -23 15 4 21 12 18 23 -11 38 -10 85 1 88
14 5 18 -4 28 -59 9 -59 24 -45 22 21 l-2 60 -110 -6 -110 -5 -18 31 c-17 29
-47 43 -47 21z m118 -93 c2 -12 -2 -16 -15 -14 -45 7 -59 37 -16 34 17 -2 29
-9 31 -20z m66 13 c-41 -16 -38 -51 6 -69 24 -9 23 -10 -11 -10 -37 -1 -70 21
-49 34 5 3 10 17 10 31 0 21 5 24 33 23 28 0 29 -1 11 -9z m24 -38 c2 -7 -3
-12 -12 -12 -9 0 -16 7 -16 16 0 17 22 14 28 -4z"/>
</g>
</svg>
